<svg width="1273" height="1073" viewBox="0 0 1273 1073" fill="none" xmlns="http://www.w3.org/2000/svg">
<g opacity="0.25" filter="url(#filter0_dd_31_6072)">
<path d="M531.074 120.658C146.706 172.805 57.3982 732.704 68.7016 783.479C80.0049 834.254 18.4157 875.824 34.7867 933.059C51.6206 991.913 93.9017 1003.88 142.184 1025C278.418 1084.61 467.766 809.552 467.766 809.552C467.766 809.552 645.2 694.494 768.478 692.907C955.455 690.499 1052.86 1088.09 1199.2 946.782C1346.35 804.688 1055.32 603.811 1086.15 378.65C1098.03 291.884 1148.82 252.318 1143.8 164.572C1140.9 113.824 1145.86 71.6791 1113.28 39.6924C1074.78 1.89617 1036.06 43.709 986.664 47.9262C807.655 63.2094 531.074 120.658 531.074 120.658Z" fill="#060D17"/>
<path d="M966.198 592.191C922.35 598.146 912.162 662.083 913.451 667.881C914.74 673.679 907.714 678.426 909.582 684.962C911.502 691.682 916.326 693.049 921.834 695.461C937.375 702.268 958.976 670.858 958.976 670.858C958.976 670.858 979.217 657.719 993.28 657.538C1014.61 657.263 1025.72 702.665 1042.42 686.529C1059.2 670.303 1026 647.364 1029.52 621.652C1030.87 611.744 1036.67 607.226 1036.1 597.206C1035.77 591.411 1036.33 586.598 1032.61 582.946C1028.22 578.63 1023.81 583.404 1018.17 583.886C997.749 585.631 966.198 592.191 966.198 592.191Z" fill="#060D17"/>
<path d="M544.812 135.087C171.428 185.391 84.6731 725.491 95.6534 774.47C106.634 823.45 46.8046 863.551 62.7078 918.762C79.0606 975.534 120.133 987.077 167.036 1007.45C299.376 1064.95 483.314 799.622 483.314 799.622C483.314 799.622 655.676 688.633 775.432 687.101C957.065 684.779 1051.69 1068.31 1193.84 932C1336.79 794.93 1054.07 601.156 1084.02 383.957C1095.56 300.258 1144.91 262.091 1140.03 177.448C1137.21 128.495 1142.03 87.8402 1110.38 56.9845C1072.98 20.5248 1035.37 60.8591 987.382 64.9272C813.489 79.67 544.812 135.087 544.812 135.087Z" fill="#060D17"/>
<path d="M558.849 150.192C196.449 199.015 112.246 723.229 122.903 770.767C133.561 818.306 75.4917 857.227 90.927 910.815C106.799 965.917 146.663 977.12 192.186 996.899C320.633 1052.71 499.159 795.179 499.159 795.179C499.159 795.179 666.451 687.455 782.683 685.968C958.973 683.714 1050.81 1055.96 1188.78 923.663C1327.53 790.625 1053.13 602.551 1082.2 391.741C1093.4 310.504 1141.29 273.46 1136.56 191.306C1133.82 143.793 1138.5 104.334 1107.78 74.3863C1071.47 38.999 1034.97 78.1469 988.398 82.0953C819.621 96.4044 558.849 150.192 558.849 150.192Z" fill="#060D17"/>
<path d="M572.885 165.296C221.47 212.64 139.819 720.966 150.153 767.064C160.488 813.163 104.179 850.904 119.146 902.867C134.537 956.3 173.193 967.163 217.336 986.342C341.89 1040.46 515.005 790.737 515.005 790.737C515.005 790.737 677.226 686.276 789.935 684.835C960.881 682.649 1049.94 1043.62 1183.73 915.326C1318.26 786.32 1052.18 603.946 1080.37 399.525C1091.23 320.75 1137.67 284.828 1133.08 205.165C1130.43 159.091 1134.97 120.829 1105.17 91.788C1069.97 57.4732 1034.58 95.4346 989.415 99.2634C825.753 113.139 572.885 165.296 572.885 165.296Z" fill="#060D17"/>
<path d="M586.921 180.4C246.491 226.265 167.392 718.704 177.403 763.361C187.415 808.019 132.866 844.581 147.365 894.92C162.275 946.682 199.723 957.206 242.486 975.786C363.146 1028.21 530.85 786.294 530.85 786.294C530.85 786.294 688.001 685.098 797.187 683.702C962.789 681.585 1049.06 1031.27 1178.67 906.99C1309 782.015 1051.23 605.341 1078.54 407.309C1089.07 330.996 1134.05 296.197 1129.61 219.023C1127.04 174.39 1131.43 137.323 1102.57 109.19C1068.47 75.9474 1034.18 112.722 990.431 116.432C831.885 129.873 586.921 180.4 586.921 180.4Z" fill="#060D17"/>
<path d="M600.957 195.505C271.511 239.889 194.965 716.442 204.653 759.658C214.341 802.875 161.553 838.257 175.585 886.973C190.013 937.065 226.253 947.249 267.636 965.23C384.403 1015.96 546.695 781.851 546.695 781.851C546.695 781.851 698.775 683.92 804.438 682.569C964.698 680.52 1048.19 1018.92 1173.61 898.653C1299.74 777.711 1050.29 606.736 1076.72 415.092C1086.9 341.242 1130.43 307.566 1126.13 232.881C1123.64 189.688 1127.9 153.817 1099.97 126.592C1066.97 94.4216 1033.78 130.01 991.447 133.6C838.017 146.608 600.957 195.505 600.957 195.505Z" fill="#060D17"/>
<path d="M614.993 210.61C296.532 253.516 222.538 714.181 231.903 755.957C241.268 797.733 190.24 831.935 203.804 879.026C217.751 927.449 252.782 937.294 292.785 954.675C405.66 1003.72 562.541 777.409 562.541 777.409C562.541 777.409 709.55 682.743 811.69 681.437C966.606 679.456 1047.31 1006.58 1168.55 890.317C1290.47 773.407 1049.34 608.132 1074.89 422.878C1084.73 351.489 1126.82 318.935 1122.66 246.741C1120.25 204.988 1124.37 170.312 1097.37 143.995C1065.47 112.897 1033.39 147.299 992.464 150.769C844.149 163.344 614.993 210.61 614.993 210.61Z" fill="#060D17"/>
<path d="M629.03 225.715C321.553 267.14 250.111 711.918 259.153 752.254C268.195 792.589 218.927 825.612 232.023 871.079C245.489 917.832 279.312 927.337 317.935 944.119C426.916 991.47 578.386 772.966 578.386 772.966C578.386 772.966 720.325 681.565 818.942 680.304C968.514 678.392 1046.44 994.232 1163.5 881.981C1281.21 769.102 1048.4 609.527 1073.06 430.662C1082.57 361.735 1123.2 330.304 1119.18 260.599C1116.86 220.286 1120.83 186.806 1094.77 161.396C1063.97 131.371 1032.99 164.587 993.48 167.937C850.281 180.078 629.03 225.715 629.03 225.715Z" fill="#060D17"/>
<path d="M643.066 240.819C346.574 280.765 277.685 709.656 286.404 748.55C295.123 787.445 247.614 819.289 260.243 863.132C273.228 908.214 305.842 917.38 343.086 933.562C448.173 979.223 594.232 768.523 594.232 768.523C594.232 768.523 731.1 680.387 826.194 679.171C970.423 677.327 1045.56 981.886 1158.44 873.644C1271.95 764.797 1047.45 610.922 1071.24 438.445C1080.4 371.981 1119.58 341.673 1115.71 274.458C1113.47 235.584 1117.3 203.301 1092.16 178.798C1062.46 149.846 1032.6 181.875 994.497 185.105C856.414 196.813 643.066 240.819 643.066 240.819Z" fill="#060D17"/>
<path d="M657.102 255.924C371.595 294.39 305.257 707.394 313.654 744.847C322.05 782.301 276.301 812.965 288.462 855.184C300.966 898.597 332.372 907.423 368.236 923.006C469.43 966.975 610.078 764.081 610.078 764.081C610.078 764.081 741.875 679.209 833.445 678.038C972.331 676.262 1044.69 969.539 1153.38 865.307C1262.69 760.492 1046.51 612.317 1069.41 446.229C1078.23 382.227 1115.96 353.041 1112.24 288.316C1110.08 250.883 1113.77 219.795 1089.56 196.2C1060.96 168.32 1032.2 199.163 995.513 202.273C862.546 213.547 657.102 255.924 657.102 255.924Z" fill="#060D17"/>
<path d="M671.139 271.028C396.616 308.014 332.83 705.131 340.904 741.144C348.977 777.157 304.988 806.642 316.681 847.237C328.704 888.98 358.902 897.466 393.386 912.45C490.687 954.727 625.923 759.638 625.923 759.638C625.923 759.638 752.649 678.031 840.697 676.905C974.239 675.197 1043.81 957.193 1148.32 856.97C1253.42 756.188 1045.56 613.712 1067.58 454.013C1076.07 392.473 1112.35 364.41 1108.76 302.174C1106.69 266.181 1110.23 236.289 1086.96 213.602C1059.46 186.794 1031.81 216.45 996.529 219.442C868.678 230.282 671.139 271.028 671.139 271.028Z" fill="#060D17"/>
<path d="M685.175 286.132C421.636 321.639 360.403 702.869 368.154 737.441C375.904 772.014 333.675 800.319 344.9 839.29C356.442 879.362 385.432 887.51 418.536 901.894C511.943 942.48 641.769 755.195 641.769 755.195C641.769 755.195 763.424 676.853 847.949 675.772C976.147 674.133 1042.93 944.847 1143.27 848.633C1244.16 751.883 1044.62 615.107 1065.76 461.797C1073.9 402.718 1108.73 375.778 1105.29 316.033C1103.3 281.479 1106.7 252.783 1084.36 231.003C1057.96 205.268 1031.41 233.738 997.546 236.61C874.81 247.016 685.175 286.132 685.175 286.132Z" fill="#060D17"/>
<path d="M699.211 301.237C446.657 335.264 387.976 700.607 395.403 733.738C402.83 766.87 362.363 793.995 373.119 831.342C384.18 869.745 411.962 877.553 443.686 891.337C533.2 930.232 657.614 750.752 657.614 750.752C657.614 750.752 774.199 675.675 855.201 674.639C978.056 673.068 1042.06 932.501 1138.21 840.297C1234.9 747.578 1043.67 616.502 1063.93 469.581C1071.74 412.964 1105.11 387.147 1101.81 329.891C1099.9 296.777 1103.17 269.277 1081.76 248.405C1056.46 223.743 1031.02 251.026 998.562 253.778C880.942 263.75 699.211 301.237 699.211 301.237Z" fill="#060D17"/>
<path d="M713.247 316.341C471.678 348.888 415.549 698.344 422.653 730.035C429.757 761.726 391.05 787.672 401.338 823.395C411.918 860.128 438.491 867.596 468.836 880.781C554.457 917.984 673.459 746.309 673.459 746.309C673.459 746.309 784.974 674.496 862.452 673.506C979.964 672.003 1041.18 920.154 1133.15 831.96C1225.63 743.273 1042.72 617.897 1062.1 477.365C1069.57 423.21 1101.49 398.515 1098.34 343.749C1096.51 312.076 1099.63 285.771 1079.15 265.807C1054.96 242.217 1030.62 268.314 999.578 270.946C887.074 280.485 713.247 316.341 713.247 316.341Z" fill="#060D17"/>
<path d="M727.284 331.445C496.699 362.513 443.122 696.082 449.903 726.332C456.684 756.582 419.737 781.349 429.558 815.448C439.656 850.51 465.021 857.639 493.986 870.225C575.713 905.737 689.305 741.866 689.305 741.866C689.305 741.866 795.748 673.318 869.704 672.373C981.872 670.938 1040.31 907.808 1128.09 823.623C1216.37 738.968 1041.78 619.292 1060.28 485.149C1067.4 433.456 1097.87 409.884 1094.86 357.608C1093.12 327.374 1096.1 302.265 1076.55 283.209C1053.45 260.691 1030.23 285.602 1000.59 288.114C893.206 297.219 727.284 331.445 727.284 331.445Z" fill="#060D17"/>
<path d="M741.32 346.55C521.719 376.138 470.695 693.82 477.153 722.629C483.611 751.439 448.424 775.025 457.777 807.5C467.395 840.893 491.551 847.682 519.136 859.669C596.97 893.489 705.15 737.423 705.15 737.423C705.15 737.423 806.523 672.14 876.955 671.239C983.78 669.873 1039.43 895.462 1123.04 815.286C1207.11 734.663 1040.83 620.687 1058.45 492.933C1065.24 443.702 1094.26 421.252 1091.39 371.466C1089.73 342.672 1092.57 318.759 1073.95 300.61C1051.95 279.165 1029.83 302.889 1001.61 305.282C899.338 313.954 741.32 346.55 741.32 346.55Z" fill="#060D17"/>
<path d="M755.356 361.655C546.74 389.764 498.268 691.559 504.403 718.927C510.538 746.296 477.111 768.703 485.996 799.554C495.133 831.277 518.081 837.727 544.286 849.114C618.227 881.243 720.996 732.982 720.996 732.982C720.996 732.982 817.298 670.963 884.207 670.108C985.688 668.81 1038.56 883.117 1117.98 806.951C1197.85 730.36 1039.89 622.083 1056.62 500.718C1063.07 453.949 1090.64 432.622 1087.91 385.326C1086.34 357.972 1089.03 335.255 1071.35 318.014C1050.45 297.641 1029.44 320.179 1002.63 322.452C905.47 330.69 755.356 361.655 755.356 361.655Z" fill="#060D17"/>
<path d="M769.392 376.76C571.761 403.389 525.841 689.296 531.653 715.224C537.465 741.152 505.798 762.38 514.215 791.607C522.871 821.66 544.61 827.77 569.436 838.557C639.483 868.995 736.841 728.539 736.841 728.539C736.841 728.539 828.072 669.785 891.459 668.975C987.597 667.745 1037.68 870.771 1112.92 798.614C1188.58 726.055 1038.94 623.478 1054.8 508.502C1060.9 464.195 1087.02 443.991 1084.44 399.184C1082.95 373.27 1085.5 351.749 1068.75 335.415C1048.95 316.115 1029.04 337.466 1003.64 339.62C911.602 347.424 769.392 376.76 769.392 376.76Z" fill="#060D17"/>
<path d="M783.428 391.864C596.781 417.013 553.414 687.034 558.903 711.521C564.392 736.008 534.485 756.057 542.434 783.659C550.609 812.042 571.14 817.813 594.586 828.001C660.74 856.748 752.687 724.096 752.687 724.096C752.687 724.096 838.847 668.607 898.71 667.841C989.505 666.68 1036.81 858.424 1107.86 790.278C1179.32 721.75 1038 624.873 1052.97 516.286C1058.74 474.441 1083.4 455.359 1080.97 413.042C1079.56 388.568 1081.97 368.243 1066.14 352.817C1047.45 334.589 1028.65 354.754 1004.66 356.788C917.734 364.159 783.428 391.864 783.428 391.864Z" fill="#060D17"/>
<path d="M797.465 406.969C621.802 430.638 580.987 684.772 586.153 707.818C591.319 730.865 563.172 749.733 570.654 775.712C578.347 802.425 597.67 807.856 619.736 817.445C681.997 844.5 768.532 719.653 768.532 719.653C768.532 719.653 849.622 667.429 905.962 666.708C991.413 665.616 1035.93 846.078 1102.81 781.941C1170.06 717.445 1037.05 626.268 1051.14 524.07C1056.57 484.687 1079.78 466.728 1077.49 426.901C1076.16 403.867 1078.43 384.737 1063.54 370.219C1045.94 353.063 1028.25 372.042 1005.68 373.956C923.866 380.893 797.465 406.969 797.465 406.969Z" fill="#060D17"/>
<path d="M811.501 422.073C646.823 444.263 608.56 682.51 613.403 704.115C618.246 725.721 591.859 743.41 598.873 767.765C606.085 792.808 624.2 797.899 644.886 806.888C703.253 832.253 784.377 715.21 784.377 715.21C784.377 715.21 860.397 666.251 913.214 665.575C993.321 664.551 1035.05 833.732 1097.75 773.604C1160.8 713.14 1036.11 627.663 1049.32 531.853C1054.41 494.933 1076.17 478.096 1074.02 440.759C1072.77 419.165 1074.9 401.232 1060.94 387.621C1044.44 371.538 1027.86 389.33 1006.69 391.124C929.998 397.627 811.501 422.073 811.501 422.073Z" fill="#060D17"/>
<path d="M825.537 437.177C671.844 457.887 636.133 680.247 640.653 700.412C645.173 720.577 620.546 737.087 627.092 759.817C633.823 783.19 650.73 787.943 670.036 796.332C724.51 820.005 800.223 710.767 800.223 710.767C800.223 710.767 871.171 665.073 920.465 664.442C995.229 663.486 1034.18 821.386 1092.69 765.267C1151.53 708.835 1035.16 629.058 1047.49 539.637C1052.24 505.178 1072.55 489.465 1070.54 454.617C1069.38 434.463 1071.37 417.726 1058.34 405.022C1042.94 390.012 1027.46 406.617 1007.71 408.292C936.131 414.362 825.537 437.177 825.537 437.177Z" fill="#060D17"/>
<path d="M839.573 452.282C696.864 471.512 663.706 677.985 667.903 696.709C672.1 715.433 649.233 730.763 655.311 751.87C661.561 773.573 677.259 777.986 695.186 785.776C745.767 807.757 816.068 706.324 816.068 706.324C816.068 706.324 881.946 663.895 927.717 663.309C997.138 662.421 1033.3 809.039 1087.63 756.93C1142.27 704.531 1034.21 630.453 1045.66 547.421C1050.07 515.424 1068.93 500.834 1067.07 468.476C1065.99 449.762 1067.83 434.22 1055.74 422.424C1041.44 408.486 1027.06 423.905 1008.73 425.46C942.263 431.096 839.573 452.282 839.573 452.282Z" fill="#060D17"/>
<path d="M853.609 467.386C721.885 485.137 691.279 675.723 695.153 693.006C699.027 710.29 677.92 724.44 683.53 743.922C689.299 763.956 703.789 768.029 720.336 775.22C767.023 795.51 831.914 701.881 831.914 701.881C831.914 701.881 892.721 662.716 934.969 662.176C999.046 661.357 1032.43 796.693 1082.58 748.594C1133.01 700.226 1033.27 631.848 1043.83 555.205C1047.91 525.67 1065.31 512.202 1063.59 482.334C1062.6 465.06 1064.3 450.714 1053.13 439.826C1039.94 426.96 1026.67 441.193 1009.74 442.629C948.395 447.831 853.609 467.386 853.609 467.386Z" fill="#060D17"/>
<path d="M867.646 482.49C746.906 498.761 718.853 673.46 722.403 689.303C725.954 705.146 706.607 718.117 711.75 735.975C717.038 754.339 730.319 758.072 745.486 764.663C788.281 783.262 847.76 697.439 847.76 697.439C847.76 697.439 903.496 661.538 942.221 661.043C1000.95 660.292 1031.55 784.347 1077.52 740.257C1123.74 695.921 1032.32 633.243 1042.01 562.989C1045.74 535.916 1061.7 523.571 1060.12 496.192C1059.21 480.358 1060.77 467.208 1050.53 457.228C1038.44 445.434 1026.27 458.481 1010.76 459.797C954.527 464.565 867.646 482.49 867.646 482.49Z" fill="#060D17"/>
<path d="M881.682 497.595C771.927 512.386 746.426 671.198 749.653 685.6C752.881 700.002 735.294 711.793 739.969 728.028C744.776 744.721 756.849 748.115 770.636 754.107C809.537 771.014 863.605 692.996 863.605 692.996C863.605 692.996 914.271 660.36 949.472 659.91C1002.86 659.227 1030.68 772 1072.46 731.92C1114.48 691.616 1031.38 634.638 1040.18 570.773C1043.57 546.162 1058.08 534.939 1056.65 510.051C1055.82 495.656 1057.23 483.702 1047.93 474.629C1036.93 463.909 1025.88 475.769 1011.77 476.965C960.659 481.3 881.682 497.595 881.682 497.595Z" fill="#060D17"/>
<path d="M895.719 512.701C796.948 526.012 773.999 668.937 776.903 681.898C779.808 694.86 763.981 705.471 768.188 720.082C772.514 735.105 783.379 738.16 795.786 743.552C830.794 758.768 879.451 688.554 879.451 688.554C879.451 688.554 925.045 659.183 956.724 658.778C1004.77 658.164 1029.8 759.656 1067.41 723.585C1105.22 687.312 1030.43 636.035 1038.36 578.558C1041.41 556.409 1054.46 546.309 1053.17 523.91C1052.42 510.956 1053.7 500.198 1045.33 492.032C1035.43 482.384 1025.48 493.058 1012.79 494.134C966.791 498.036 895.719 512.701 895.719 512.701Z" fill="#060D17"/>
<path d="M909.755 527.805C821.969 539.637 801.572 666.675 804.153 678.195C806.735 689.716 792.669 699.148 796.407 712.134C800.252 725.488 809.909 728.203 820.936 732.996C852.05 746.52 895.296 684.111 895.296 684.111C895.296 684.111 935.82 658.005 963.976 657.645C1006.68 657.099 1028.93 747.309 1062.35 715.248C1095.96 683.008 1029.49 637.43 1036.53 586.342C1039.24 566.655 1050.84 557.678 1049.7 537.769C1049.03 526.254 1050.17 516.692 1042.73 509.434C1033.93 500.858 1025.09 510.346 1013.81 511.302C972.923 514.77 909.755 527.805 909.755 527.805Z" fill="#060D17"/>
<path d="M923.791 542.909C846.989 553.261 829.145 664.412 831.403 674.492C833.662 684.572 821.356 692.825 824.627 704.187C827.99 715.87 836.439 718.246 846.086 722.44C873.307 734.273 911.141 679.668 911.141 679.668C911.141 679.668 946.595 656.827 971.227 656.512C1008.59 656.034 1028.05 734.963 1057.29 706.911C1086.69 678.703 1028.54 638.825 1034.7 594.126C1037.08 576.901 1047.22 569.046 1046.22 551.627C1045.64 541.553 1046.63 533.186 1040.12 526.836C1032.43 519.333 1024.69 527.633 1014.82 528.471C979.055 531.505 923.791 542.909 923.791 542.909Z" fill="#060D17"/>
<path d="M937.827 558.014C872.01 566.886 856.718 662.15 858.653 670.789C860.589 679.428 850.043 686.501 852.846 696.24C855.728 706.253 862.968 708.289 871.236 711.883C894.564 722.025 926.987 675.225 926.987 675.225C926.987 675.225 957.37 655.649 978.479 655.379C1010.5 654.969 1027.18 722.617 1052.23 698.574C1077.43 674.398 1027.6 640.22 1032.87 601.91C1034.91 587.147 1043.61 580.415 1042.75 565.485C1042.25 556.851 1043.1 549.68 1037.52 544.238C1030.93 537.807 1024.3 544.921 1015.84 545.639C985.188 548.239 937.827 558.014 937.827 558.014Z" fill="#060D17"/>
<path d="M951.863 573.118C897.031 580.511 884.291 659.888 885.903 667.086C887.516 674.285 878.73 680.178 881.065 688.292C883.466 696.636 889.498 698.332 896.386 701.327C915.82 709.778 942.832 670.783 942.832 670.783C942.832 670.783 968.144 654.471 985.731 654.246C1012.4 653.904 1026.3 710.271 1047.18 690.238C1068.17 670.093 1026.65 641.615 1031.05 609.694C1032.74 597.393 1039.99 591.783 1039.27 579.344C1038.86 572.149 1039.57 566.174 1034.92 561.639C1029.43 556.281 1023.9 562.209 1016.86 562.807C991.32 564.973 951.863 573.118 951.863 573.118Z" fill="#060D17"/>
<path d="M531.074 120.658C146.706 172.805 57.3982 732.704 68.7016 783.479C80.0049 834.254 18.4157 875.824 34.7867 933.059C51.6206 991.913 93.9017 1003.88 142.184 1025C278.418 1084.61 467.766 809.552 467.766 809.552C467.766 809.552 645.2 694.494 768.478 692.907C955.455 690.499 1052.86 1088.09 1199.2 946.782C1346.35 804.688 1055.32 603.811 1086.15 378.65C1098.03 291.884 1148.82 252.318 1143.8 164.572C1140.9 113.824 1145.86 71.6791 1113.28 39.6924C1074.78 1.89617 1036.06 43.709 986.664 47.9262C807.655 63.2094 531.074 120.658 531.074 120.658Z" stroke="#45D3F5"/>
<path d="M966.198 592.191C922.35 598.146 912.162 662.083 913.451 667.881C914.74 673.679 907.714 678.426 909.582 684.962C911.502 691.682 916.326 693.049 921.834 695.461C937.375 702.268 958.976 670.858 958.976 670.858C958.976 670.858 979.217 657.719 993.28 657.538C1014.61 657.263 1025.72 702.665 1042.42 686.529C1059.2 670.303 1026 647.364 1029.52 621.652C1030.87 611.744 1036.67 607.226 1036.1 597.206C1035.77 591.411 1036.33 586.598 1032.61 582.946C1028.22 578.63 1023.81 583.404 1018.17 583.886C997.749 585.631 966.198 592.191 966.198 592.191Z" stroke="#45D3F5"/>
<path d="M544.812 135.087C171.428 185.391 84.6731 725.491 95.6534 774.47C106.634 823.45 46.8046 863.551 62.7078 918.762C79.0606 975.534 120.133 987.077 167.036 1007.45C299.376 1064.95 483.314 799.622 483.314 799.622C483.314 799.622 655.676 688.633 775.432 687.101C957.065 684.779 1051.69 1068.31 1193.84 932C1336.79 794.93 1054.07 601.156 1084.02 383.957C1095.56 300.258 1144.91 262.091 1140.03 177.448C1137.21 128.495 1142.03 87.8402 1110.38 56.9845C1072.98 20.5248 1035.37 60.8591 987.382 64.9272C813.489 79.67 544.812 135.087 544.812 135.087Z" stroke="#45D3F5"/>
<path d="M558.849 150.192C196.449 199.015 112.246 723.229 122.903 770.767C133.561 818.306 75.4917 857.227 90.927 910.815C106.799 965.917 146.663 977.12 192.186 996.899C320.633 1052.71 499.159 795.179 499.159 795.179C499.159 795.179 666.451 687.455 782.683 685.968C958.973 683.714 1050.81 1055.96 1188.78 923.663C1327.53 790.625 1053.13 602.551 1082.2 391.741C1093.4 310.504 1141.29 273.46 1136.56 191.306C1133.82 143.793 1138.5 104.334 1107.78 74.3863C1071.47 38.999 1034.97 78.1469 988.398 82.0953C819.621 96.4044 558.849 150.192 558.849 150.192Z" stroke="#45D3F5"/>
<path d="M572.885 165.296C221.47 212.64 139.819 720.966 150.153 767.064C160.488 813.163 104.179 850.904 119.146 902.867C134.537 956.3 173.193 967.163 217.336 986.342C341.89 1040.46 515.005 790.737 515.005 790.737C515.005 790.737 677.226 686.276 789.935 684.835C960.881 682.649 1049.94 1043.62 1183.73 915.326C1318.26 786.32 1052.18 603.946 1080.37 399.525C1091.23 320.75 1137.67 284.828 1133.08 205.165C1130.43 159.091 1134.97 120.829 1105.17 91.788C1069.97 57.4732 1034.58 95.4346 989.415 99.2634C825.753 113.139 572.885 165.296 572.885 165.296Z" stroke="#45D3F5"/>
<path d="M586.921 180.4C246.491 226.265 167.392 718.704 177.403 763.361C187.415 808.019 132.866 844.581 147.365 894.92C162.275 946.682 199.723 957.206 242.486 975.786C363.146 1028.21 530.85 786.294 530.85 786.294C530.85 786.294 688.001 685.098 797.187 683.702C962.789 681.585 1049.06 1031.27 1178.67 906.99C1309 782.015 1051.23 605.341 1078.54 407.309C1089.07 330.996 1134.05 296.197 1129.61 219.023C1127.04 174.39 1131.43 137.323 1102.57 109.19C1068.47 75.9474 1034.18 112.722 990.431 116.432C831.885 129.873 586.921 180.4 586.921 180.4Z" stroke="#45D3F5"/>
<path d="M600.957 195.505C271.511 239.889 194.965 716.442 204.653 759.658C214.341 802.875 161.553 838.257 175.585 886.973C190.013 937.065 226.253 947.249 267.636 965.23C384.403 1015.96 546.695 781.851 546.695 781.851C546.695 781.851 698.775 683.92 804.438 682.569C964.698 680.52 1048.19 1018.92 1173.61 898.653C1299.74 777.711 1050.29 606.736 1076.72 415.092C1086.9 341.242 1130.43 307.566 1126.13 232.881C1123.64 189.688 1127.9 153.817 1099.97 126.592C1066.97 94.4216 1033.78 130.01 991.447 133.6C838.017 146.608 600.957 195.505 600.957 195.505Z" stroke="#45D3F5"/>
<path d="M614.993 210.61C296.532 253.516 222.538 714.181 231.903 755.957C241.268 797.733 190.24 831.935 203.804 879.026C217.751 927.449 252.782 937.294 292.785 954.675C405.66 1003.72 562.541 777.409 562.541 777.409C562.541 777.409 709.55 682.743 811.69 681.437C966.606 679.456 1047.31 1006.58 1168.55 890.317C1290.47 773.407 1049.34 608.132 1074.89 422.878C1084.73 351.489 1126.82 318.935 1122.66 246.741C1120.25 204.988 1124.37 170.312 1097.37 143.995C1065.47 112.897 1033.39 147.299 992.464 150.769C844.149 163.344 614.993 210.61 614.993 210.61Z" stroke="#45D3F5"/>
<path d="M629.03 225.715C321.553 267.14 250.111 711.918 259.153 752.254C268.195 792.589 218.927 825.612 232.023 871.079C245.489 917.832 279.312 927.337 317.935 944.119C426.916 991.47 578.386 772.966 578.386 772.966C578.386 772.966 720.325 681.565 818.942 680.304C968.514 678.392 1046.44 994.232 1163.5 881.981C1281.21 769.102 1048.4 609.527 1073.06 430.662C1082.57 361.735 1123.2 330.304 1119.18 260.599C1116.86 220.286 1120.83 186.806 1094.77 161.396C1063.97 131.371 1032.99 164.587 993.48 167.937C850.281 180.078 629.03 225.715 629.03 225.715Z" stroke="#45D3F5"/>
<path d="M643.066 240.819C346.574 280.765 277.685 709.656 286.404 748.55C295.123 787.445 247.614 819.289 260.243 863.132C273.228 908.214 305.842 917.38 343.086 933.562C448.173 979.223 594.232 768.523 594.232 768.523C594.232 768.523 731.1 680.387 826.194 679.171C970.423 677.327 1045.56 981.886 1158.44 873.644C1271.95 764.797 1047.45 610.922 1071.24 438.445C1080.4 371.981 1119.58 341.673 1115.71 274.458C1113.47 235.584 1117.3 203.301 1092.16 178.798C1062.46 149.846 1032.6 181.875 994.497 185.105C856.414 196.813 643.066 240.819 643.066 240.819Z" stroke="#45D3F5"/>
<path d="M657.102 255.924C371.595 294.39 305.257 707.394 313.654 744.847C322.05 782.301 276.301 812.965 288.462 855.184C300.966 898.597 332.372 907.423 368.236 923.006C469.43 966.975 610.078 764.081 610.078 764.081C610.078 764.081 741.875 679.209 833.445 678.038C972.331 676.262 1044.69 969.539 1153.38 865.307C1262.69 760.492 1046.51 612.317 1069.41 446.229C1078.23 382.227 1115.96 353.041 1112.24 288.316C1110.08 250.883 1113.77 219.795 1089.56 196.2C1060.96 168.32 1032.2 199.163 995.513 202.273C862.546 213.547 657.102 255.924 657.102 255.924Z" stroke="#45D3F5"/>
<path d="M671.139 271.028C396.616 308.014 332.83 705.131 340.904 741.144C348.977 777.157 304.988 806.642 316.681 847.237C328.704 888.98 358.902 897.466 393.386 912.45C490.687 954.727 625.923 759.638 625.923 759.638C625.923 759.638 752.649 678.031 840.697 676.905C974.239 675.197 1043.81 957.193 1148.32 856.97C1253.42 756.188 1045.56 613.712 1067.58 454.013C1076.07 392.473 1112.35 364.41 1108.76 302.174C1106.69 266.181 1110.23 236.289 1086.96 213.602C1059.46 186.794 1031.81 216.45 996.529 219.442C868.678 230.282 671.139 271.028 671.139 271.028Z" stroke="#45D3F5"/>
<path d="M685.175 286.132C421.636 321.639 360.403 702.869 368.154 737.441C375.904 772.014 333.675 800.319 344.9 839.29C356.442 879.362 385.432 887.51 418.536 901.894C511.943 942.48 641.769 755.195 641.769 755.195C641.769 755.195 763.424 676.853 847.949 675.772C976.147 674.133 1042.93 944.847 1143.27 848.633C1244.16 751.883 1044.62 615.107 1065.76 461.797C1073.9 402.718 1108.73 375.778 1105.29 316.033C1103.3 281.479 1106.7 252.783 1084.36 231.003C1057.96 205.268 1031.41 233.738 997.546 236.61C874.81 247.016 685.175 286.132 685.175 286.132Z" stroke="#45D3F5"/>
<path d="M699.211 301.237C446.657 335.264 387.976 700.607 395.403 733.738C402.83 766.87 362.363 793.995 373.119 831.342C384.18 869.745 411.962 877.553 443.686 891.337C533.2 930.232 657.614 750.752 657.614 750.752C657.614 750.752 774.199 675.675 855.201 674.639C978.056 673.068 1042.06 932.501 1138.21 840.297C1234.9 747.578 1043.67 616.502 1063.93 469.581C1071.74 412.964 1105.11 387.147 1101.81 329.891C1099.9 296.777 1103.17 269.277 1081.76 248.405C1056.46 223.743 1031.02 251.026 998.562 253.778C880.942 263.75 699.211 301.237 699.211 301.237Z" stroke="#45D3F5"/>
<path d="M713.247 316.341C471.678 348.888 415.549 698.344 422.653 730.035C429.757 761.726 391.05 787.672 401.338 823.395C411.918 860.128 438.491 867.596 468.836 880.781C554.457 917.984 673.459 746.309 673.459 746.309C673.459 746.309 784.974 674.496 862.452 673.506C979.964 672.003 1041.18 920.154 1133.15 831.96C1225.63 743.273 1042.72 617.897 1062.1 477.365C1069.57 423.21 1101.49 398.515 1098.34 343.749C1096.51 312.076 1099.63 285.771 1079.15 265.807C1054.96 242.217 1030.62 268.314 999.578 270.946C887.074 280.485 713.247 316.341 713.247 316.341Z" stroke="#45D3F5"/>
<path d="M727.284 331.445C496.699 362.513 443.122 696.082 449.903 726.332C456.684 756.582 419.737 781.349 429.558 815.448C439.656 850.51 465.021 857.639 493.986 870.225C575.713 905.737 689.305 741.866 689.305 741.866C689.305 741.866 795.748 673.318 869.704 672.373C981.872 670.938 1040.31 907.808 1128.09 823.623C1216.37 738.968 1041.78 619.292 1060.28 485.149C1067.4 433.456 1097.87 409.884 1094.86 357.608C1093.12 327.374 1096.1 302.265 1076.55 283.209C1053.45 260.691 1030.23 285.602 1000.59 288.114C893.206 297.219 727.284 331.445 727.284 331.445Z" stroke="#45D3F5"/>
<path d="M741.32 346.55C521.719 376.138 470.695 693.82 477.153 722.629C483.611 751.439 448.424 775.025 457.777 807.5C467.395 840.893 491.551 847.682 519.136 859.669C596.97 893.489 705.15 737.423 705.15 737.423C705.15 737.423 806.523 672.14 876.955 671.239C983.78 669.873 1039.43 895.462 1123.04 815.286C1207.11 734.663 1040.83 620.687 1058.45 492.933C1065.24 443.702 1094.26 421.252 1091.39 371.466C1089.73 342.672 1092.57 318.759 1073.95 300.61C1051.95 279.165 1029.83 302.889 1001.61 305.282C899.338 313.954 741.32 346.55 741.32 346.55Z" stroke="#45D3F5"/>
<path d="M755.356 361.655C546.74 389.764 498.268 691.559 504.403 718.927C510.538 746.296 477.111 768.703 485.996 799.554C495.133 831.277 518.081 837.727 544.286 849.114C618.227 881.243 720.996 732.982 720.996 732.982C720.996 732.982 817.298 670.963 884.207 670.108C985.688 668.81 1038.56 883.117 1117.98 806.951C1197.85 730.36 1039.89 622.083 1056.62 500.718C1063.07 453.949 1090.64 432.622 1087.91 385.326C1086.34 357.972 1089.03 335.255 1071.35 318.014C1050.45 297.641 1029.44 320.179 1002.63 322.452C905.47 330.69 755.356 361.655 755.356 361.655Z" stroke="#45D3F5"/>
<path d="M769.392 376.76C571.761 403.389 525.841 689.296 531.653 715.224C537.465 741.152 505.798 762.38 514.215 791.607C522.871 821.66 544.61 827.77 569.436 838.557C639.483 868.995 736.841 728.539 736.841 728.539C736.841 728.539 828.072 669.785 891.459 668.975C987.597 667.745 1037.68 870.771 1112.92 798.614C1188.58 726.055 1038.94 623.478 1054.8 508.502C1060.9 464.195 1087.02 443.991 1084.44 399.184C1082.95 373.27 1085.5 351.749 1068.75 335.415C1048.95 316.115 1029.04 337.466 1003.64 339.62C911.602 347.424 769.392 376.76 769.392 376.76Z" stroke="#45D3F5"/>
<path d="M783.428 391.864C596.781 417.013 553.414 687.034 558.903 711.521C564.392 736.008 534.485 756.057 542.434 783.659C550.609 812.042 571.14 817.813 594.586 828.001C660.74 856.748 752.687 724.096 752.687 724.096C752.687 724.096 838.847 668.607 898.71 667.841C989.505 666.68 1036.81 858.424 1107.86 790.278C1179.32 721.75 1038 624.873 1052.97 516.286C1058.74 474.441 1083.4 455.359 1080.97 413.042C1079.56 388.568 1081.97 368.243 1066.14 352.817C1047.45 334.589 1028.65 354.754 1004.66 356.788C917.734 364.159 783.428 391.864 783.428 391.864Z" stroke="#45D3F5"/>
<path d="M797.465 406.969C621.802 430.638 580.987 684.772 586.153 707.818C591.319 730.865 563.172 749.733 570.654 775.712C578.347 802.425 597.67 807.856 619.736 817.445C681.997 844.5 768.532 719.653 768.532 719.653C768.532 719.653 849.622 667.429 905.962 666.708C991.413 665.616 1035.93 846.078 1102.81 781.941C1170.06 717.445 1037.05 626.268 1051.14 524.07C1056.57 484.687 1079.78 466.728 1077.49 426.901C1076.16 403.867 1078.43 384.737 1063.54 370.219C1045.94 353.063 1028.25 372.042 1005.68 373.956C923.866 380.893 797.465 406.969 797.465 406.969Z" stroke="#45D3F5"/>
<path d="M811.501 422.073C646.823 444.263 608.56 682.51 613.403 704.115C618.246 725.721 591.859 743.41 598.873 767.765C606.085 792.808 624.2 797.899 644.886 806.888C703.253 832.253 784.377 715.21 784.377 715.21C784.377 715.21 860.397 666.251 913.214 665.575C993.321 664.551 1035.05 833.732 1097.75 773.604C1160.8 713.14 1036.11 627.663 1049.32 531.853C1054.41 494.933 1076.17 478.096 1074.02 440.759C1072.77 419.165 1074.9 401.232 1060.94 387.621C1044.44 371.538 1027.86 389.33 1006.69 391.124C929.998 397.627 811.501 422.073 811.501 422.073Z" stroke="#45D3F5"/>
<path d="M825.537 437.177C671.844 457.887 636.133 680.247 640.653 700.412C645.173 720.577 620.546 737.087 627.092 759.817C633.823 783.19 650.73 787.943 670.036 796.332C724.51 820.005 800.223 710.767 800.223 710.767C800.223 710.767 871.171 665.073 920.465 664.442C995.229 663.486 1034.18 821.386 1092.69 765.267C1151.53 708.835 1035.16 629.058 1047.49 539.637C1052.24 505.178 1072.55 489.465 1070.54 454.617C1069.38 434.463 1071.37 417.726 1058.34 405.022C1042.94 390.012 1027.46 406.617 1007.71 408.292C936.131 414.362 825.537 437.177 825.537 437.177Z" stroke="#45D3F5"/>
<path d="M839.573 452.282C696.864 471.512 663.706 677.985 667.903 696.709C672.1 715.433 649.233 730.763 655.311 751.87C661.561 773.573 677.259 777.986 695.186 785.776C745.767 807.757 816.068 706.324 816.068 706.324C816.068 706.324 881.946 663.895 927.717 663.309C997.138 662.421 1033.3 809.039 1087.63 756.93C1142.27 704.531 1034.21 630.453 1045.66 547.421C1050.07 515.424 1068.93 500.834 1067.07 468.476C1065.99 449.762 1067.83 434.22 1055.74 422.424C1041.44 408.486 1027.06 423.905 1008.73 425.46C942.263 431.096 839.573 452.282 839.573 452.282Z" stroke="#45D3F5"/>
<path d="M853.609 467.386C721.885 485.137 691.279 675.723 695.153 693.006C699.027 710.29 677.92 724.44 683.53 743.922C689.299 763.956 703.789 768.029 720.336 775.22C767.023 795.51 831.914 701.881 831.914 701.881C831.914 701.881 892.721 662.716 934.969 662.176C999.046 661.357 1032.43 796.693 1082.58 748.594C1133.01 700.226 1033.27 631.848 1043.83 555.205C1047.91 525.67 1065.31 512.202 1063.59 482.334C1062.6 465.06 1064.3 450.714 1053.13 439.826C1039.94 426.96 1026.67 441.193 1009.74 442.629C948.395 447.831 853.609 467.386 853.609 467.386Z" stroke="#45D3F5"/>
<path d="M867.646 482.49C746.906 498.761 718.853 673.46 722.403 689.303C725.954 705.146 706.607 718.117 711.75 735.975C717.038 754.339 730.319 758.072 745.486 764.663C788.281 783.262 847.76 697.439 847.76 697.439C847.76 697.439 903.496 661.538 942.221 661.043C1000.95 660.292 1031.55 784.347 1077.52 740.257C1123.74 695.921 1032.32 633.243 1042.01 562.989C1045.74 535.916 1061.7 523.571 1060.12 496.192C1059.21 480.358 1060.77 467.208 1050.53 457.228C1038.44 445.434 1026.27 458.481 1010.76 459.797C954.527 464.565 867.646 482.49 867.646 482.49Z" stroke="#45D3F5"/>
<path d="M881.682 497.595C771.927 512.386 746.426 671.198 749.653 685.6C752.881 700.002 735.294 711.793 739.969 728.028C744.776 744.721 756.849 748.115 770.636 754.107C809.537 771.014 863.605 692.996 863.605 692.996C863.605 692.996 914.271 660.36 949.472 659.91C1002.86 659.227 1030.68 772 1072.46 731.92C1114.48 691.616 1031.38 634.638 1040.18 570.773C1043.57 546.162 1058.08 534.939 1056.65 510.051C1055.82 495.656 1057.23 483.702 1047.93 474.629C1036.93 463.909 1025.88 475.769 1011.77 476.965C960.659 481.3 881.682 497.595 881.682 497.595Z" stroke="#45D3F5"/>
<path d="M895.719 512.701C796.948 526.012 773.999 668.937 776.903 681.898C779.808 694.86 763.981 705.471 768.188 720.082C772.514 735.105 783.379 738.16 795.786 743.552C830.794 758.768 879.451 688.554 879.451 688.554C879.451 688.554 925.045 659.183 956.724 658.778C1004.77 658.164 1029.8 759.656 1067.41 723.585C1105.22 687.312 1030.43 636.035 1038.36 578.558C1041.41 556.409 1054.46 546.309 1053.17 523.91C1052.42 510.956 1053.7 500.198 1045.33 492.032C1035.43 482.384 1025.48 493.058 1012.79 494.134C966.791 498.036 895.719 512.701 895.719 512.701Z" stroke="#45D3F5"/>
<path d="M909.755 527.805C821.969 539.637 801.572 666.675 804.153 678.195C806.735 689.716 792.669 699.148 796.407 712.134C800.252 725.488 809.909 728.203 820.936 732.996C852.05 746.52 895.296 684.111 895.296 684.111C895.296 684.111 935.82 658.005 963.976 657.645C1006.68 657.099 1028.93 747.309 1062.35 715.248C1095.96 683.008 1029.49 637.43 1036.53 586.342C1039.24 566.655 1050.84 557.678 1049.7 537.769C1049.03 526.254 1050.17 516.692 1042.73 509.434C1033.93 500.858 1025.09 510.346 1013.81 511.302C972.923 514.77 909.755 527.805 909.755 527.805Z" stroke="#45D3F5"/>
<path d="M923.791 542.909C846.989 553.261 829.145 664.412 831.403 674.492C833.662 684.572 821.356 692.825 824.627 704.187C827.99 715.87 836.439 718.246 846.086 722.44C873.307 734.273 911.141 679.668 911.141 679.668C911.141 679.668 946.595 656.827 971.227 656.512C1008.59 656.034 1028.05 734.963 1057.29 706.911C1086.69 678.703 1028.54 638.825 1034.7 594.126C1037.08 576.901 1047.22 569.046 1046.22 551.627C1045.64 541.553 1046.63 533.186 1040.12 526.836C1032.43 519.333 1024.69 527.633 1014.82 528.471C979.055 531.505 923.791 542.909 923.791 542.909Z" stroke="#45D3F5"/>
<path d="M937.827 558.014C872.01 566.886 856.718 662.15 858.653 670.789C860.589 679.428 850.043 686.501 852.846 696.24C855.728 706.253 862.968 708.289 871.236 711.883C894.564 722.025 926.987 675.225 926.987 675.225C926.987 675.225 957.37 655.649 978.479 655.379C1010.5 654.969 1027.18 722.617 1052.23 698.574C1077.43 674.398 1027.6 640.22 1032.87 601.91C1034.91 587.147 1043.61 580.415 1042.75 565.485C1042.25 556.851 1043.1 549.68 1037.52 544.238C1030.93 537.807 1024.3 544.921 1015.84 545.639C985.188 548.239 937.827 558.014 937.827 558.014Z" stroke="#45D3F5"/>
<path d="M951.863 573.118C897.031 580.511 884.291 659.888 885.903 667.086C887.516 674.285 878.73 680.178 881.065 688.292C883.466 696.636 889.498 698.332 896.386 701.327C915.82 709.778 942.832 670.783 942.832 670.783C942.832 670.783 968.144 654.471 985.731 654.246C1012.4 653.904 1026.3 710.271 1047.18 690.238C1068.17 670.093 1026.65 641.615 1031.05 609.694C1032.74 597.393 1039.99 591.783 1039.27 579.344C1038.86 572.149 1039.57 566.174 1034.92 561.639C1029.43 556.281 1023.9 562.209 1016.86 562.807C991.32 564.973 951.863 573.118 951.863 573.118Z" stroke="#45D3F5"/>
</g>
<defs>
<filter id="filter0_dd_31_6072" x="0.5" y="0.5" width="1272" height="1072.46" filterUnits="userSpaceOnUse" color-interpolation-filters="sRGB">
<feFlood flood-opacity="0" result="BackgroundImageFix"/>
<feColorMatrix in="SourceAlpha" type="matrix" values="0 0 0 0 0 0 0 0 0 0 0 0 0 0 0 0 0 0 127 0" result="hardAlpha"/>
<feOffset dy="8"/>
<feGaussianBlur stdDeviation="15.5"/>
<feColorMatrix type="matrix" values="0 0 0 0 0.768627 0 0 0 0 0.956863 0 0 0 0 1 0 0 0 1 0"/>
<feBlend mode="normal" in2="BackgroundImageFix" result="effect1_dropShadow_31_6072"/>
<feColorMatrix in="SourceAlpha" type="matrix" values="0 0 0 0 0 0 0 0 0 0 0 0 0 0 0 0 0 0 127 0" result="hardAlpha"/>
<feOffset dy="4"/>
<feGaussianBlur stdDeviation="2"/>
<feComposite in2="hardAlpha" operator="out"/>
<feColorMatrix type="matrix" values="0 0 0 0 0 0 0 0 0 0 0 0 0 0 0 0 0 0 0.25 0"/>
<feBlend mode="normal" in2="effect1_dropShadow_31_6072" result="effect2_dropShadow_31_6072"/>
<feBlend mode="normal" in="SourceGraphic" in2="effect2_dropShadow_31_6072" result="shape"/>
</filter>
</defs>
</svg>
