<svg width="107" height="37" viewBox="0 0 107 37" fill="none" xmlns="http://www.w3.org/2000/svg">
<g filter="url(#filter0_d_25_100)">
<path d="M8.34961 8.28125H9.33789H16.6426C17.0436 8.29557 17.373 8.44596 17.6309 8.73242C17.903 9.01888 18.0391 9.36263 18.0391 9.76367C17.9674 10.623 17.502 11.0885 16.6426 11.1602H9.08008C8.53581 11.1888 8.08464 11.3965 7.72656 11.7832C7.36849 12.1699 7.10352 12.6139 6.93164 13.1152C6.77409 13.6022 6.69531 14.1035 6.69531 14.6191C6.69531 15.1348 6.77409 15.6432 6.93164 16.1445C7.10352 16.6315 7.36849 17.0684 7.72656 17.4551C8.08464 17.8418 8.53581 18.0495 9.08008 18.0781H16.6426C17.0436 18.0924 17.373 18.2428 17.6309 18.5293C17.903 18.8158 18.0391 19.1595 18.0391 19.5605C18.0247 19.9473 17.8815 20.2767 17.6094 20.5488C17.3516 20.8066 17.0293 20.9427 16.6426 20.957H8.75781H8.34961C7.34701 20.8997 6.51628 20.5202 5.85742 19.8184C5.21289 19.1022 4.7474 18.293 4.46094 17.3906C4.1888 16.4883 4.05273 15.5645 4.05273 14.6191C4.05273 13.6738 4.19596 12.75 4.48242 11.8477C4.76888 10.9453 5.23438 10.1432 5.87891 9.44141C6.52344 8.72526 7.34701 8.33854 8.34961 8.28125ZM17.9961 14.5332C17.9961 14.9342 17.8529 15.2708 17.5664 15.543C17.2943 15.8294 16.9577 15.9727 16.5566 15.9727H10.0684C9.66732 15.9727 9.32357 15.8366 9.03711 15.5645C8.76497 15.278 8.62891 14.9342 8.62891 14.5332C8.62891 14.1322 8.76497 13.7884 9.03711 13.502C9.32357 13.2298 9.66732 13.0938 10.0684 13.0938H16.5566C16.9577 13.0938 17.2943 13.237 17.5664 13.5234C17.8529 13.7956 17.9961 14.1322 17.9961 14.5332ZM21.6699 7.9375C22.0566 7.95182 22.3861 8.09505 22.6582 8.36719C22.9303 8.625 23.0736 8.94727 23.0879 9.33398V19.8613C23.002 20.7207 22.5293 21.1862 21.6699 21.2578C21.2689 21.2578 20.918 21.1289 20.6172 20.8711C20.3307 20.599 20.1875 20.2624 20.1875 19.8613V9.33398C20.2018 8.93294 20.3522 8.60352 20.6387 8.3457C20.9251 8.07357 21.2689 7.9375 21.6699 7.9375ZM30.3711 10.8809C30.8724 10.8809 31.3594 10.9668 31.832 11.1387C32.319 11.3105 32.7845 11.5612 33.2285 11.8906C33.3001 11.9622 33.3789 12.0339 33.4648 12.1055C33.5365 12.0339 33.6152 11.9622 33.7012 11.8906C34.1452 11.5612 34.6035 11.3105 35.0762 11.1387C35.5632 10.9668 36.0501 10.8809 36.5371 10.8809C37.0384 10.8809 37.5254 10.9668 37.998 11.1387C38.485 11.3105 38.9434 11.5684 39.373 11.9121C39.8171 12.2415 40.2038 12.6855 40.5332 13.2441C40.877 13.8027 41.0488 14.4688 41.0488 15.2422V19.8184C40.9629 20.6777 40.4902 21.1432 39.6309 21.2148C39.2298 21.2148 38.8789 21.0859 38.5781 20.8281C38.2917 20.556 38.1484 20.2194 38.1484 19.8184V15.4141C38.1484 15.0703 38.084 14.7839 37.9551 14.5547C37.8262 14.3112 37.6829 14.125 37.5254 13.9961C37.3678 13.8529 37.2031 13.7526 37.0312 13.6953C36.8594 13.6237 36.6875 13.5879 36.5156 13.5879C36.3438 13.5879 36.1719 13.6237 36 13.6953C35.8424 13.7526 35.6849 13.8529 35.5273 13.9961C35.3698 14.125 35.2266 14.3112 35.0977 14.5547C34.9688 14.7839 34.8971 15.0703 34.8828 15.4141V19.8184C34.7969 20.6777 34.3242 21.1432 33.4648 21.2148C33.0638 21.2148 32.7129 21.0859 32.4121 20.8281C32.1257 20.556 31.9824 20.2194 31.9824 19.8184V15.4141C31.9824 15.0703 31.918 14.7839 31.7891 14.5547C31.6602 14.3112 31.5169 14.125 31.3594 13.9961C31.2018 13.8529 31.0371 13.7526 30.8652 13.6953C30.6934 13.6237 30.5215 13.5879 30.3496 13.5879C30.1777 13.5879 30.0059 13.6237 29.834 13.6953C29.6764 13.7526 29.5189 13.8529 29.3613 13.9961C29.2038 14.125 29.0605 14.3112 28.9316 14.5547C28.8027 14.7839 28.7311 15.0703 28.7168 15.4141V19.8184C28.6452 20.6777 28.1797 21.1432 27.3203 21.2148C26.9193 21.2148 26.5684 21.0859 26.2676 20.8281C25.9811 20.556 25.8379 20.2194 25.8379 19.8184V15.2422C25.8665 14.4688 26.0456 13.8027 26.375 13.2441C26.7044 12.6855 27.0911 12.2415 27.5352 11.9121C27.9792 11.5684 28.4375 11.3105 28.9102 11.1387C29.3971 10.9668 29.8841 10.8809 30.3711 10.8809ZM45.1953 10.9883C45.582 11.0026 45.9115 11.1458 46.1836 11.418C46.4557 11.6758 46.599 11.998 46.6133 12.3848V19.8184C46.5273 20.6777 46.0547 21.1432 45.1953 21.2148C44.7943 21.2148 44.4434 21.0859 44.1426 20.8281C43.8561 20.556 43.7129 20.2194 43.7129 19.8184V12.3848C43.7272 11.9837 43.8776 11.6543 44.1641 11.3965C44.4505 11.1243 44.7943 10.9883 45.1953 10.9883ZM43.3906 8.19531C43.3906 7.79427 43.5625 7.45052 43.9062 7.16406C44.25 6.8776 44.6654 6.73438 45.1523 6.73438C45.6393 6.73438 46.0547 6.8776 46.3984 7.16406C46.7422 7.45052 46.9141 7.79427 46.9141 8.19531C46.9141 8.61068 46.7422 8.96159 46.3984 9.24805C46.0547 9.53451 45.6393 9.67773 45.1523 9.67773C44.6654 9.67773 44.25 9.53451 43.9062 9.24805C43.5625 8.96159 43.3906 8.61068 43.3906 8.19531ZM49.6855 13.9102C49.9577 13.2227 50.416 12.6068 51.0605 12.0625C51.7194 11.5039 52.5501 11.2174 53.5527 11.2031H61.6309C62.0319 11.2031 62.3685 11.3464 62.6406 11.6328C62.9271 11.9049 63.0703 12.2415 63.0703 12.6426C63.0703 13.0436 62.9271 13.3874 62.6406 13.6738C62.3685 13.946 62.0319 14.082 61.6309 14.082H53.4668C53.1947 14.082 52.9583 14.1966 52.7578 14.4258C52.5573 14.6406 52.3997 14.8984 52.2852 15.1992C52.1849 15.5 52.1348 15.7865 52.1348 16.0586V19.8184C52.0488 20.6777 51.5762 21.1432 50.7168 21.2148C50.3158 21.2148 49.9648 21.0859 49.6641 20.8281C49.3776 20.556 49.2344 20.2194 49.2344 19.8184V16.0801H49.2559C49.2559 15.3353 49.3991 14.612 49.6855 13.9102ZM77.207 19.8184V14.6406C77.207 14.2826 77.0208 14.0964 76.6484 14.082H69.1289C68.8568 14.0964 68.6204 14.2181 68.4199 14.4473C68.2194 14.6621 68.069 14.9199 67.9688 15.2207C67.8828 15.5072 67.8398 15.8008 67.8398 16.1016C67.8398 16.388 67.8828 16.6816 67.9688 16.9824C68.069 17.2689 68.2194 17.5267 68.4199 17.7559C68.6204 17.9707 68.8568 18.0781 69.1289 18.0781H74.6289C75.0299 18.0781 75.3665 18.2214 75.6387 18.5078C75.9251 18.7799 76.0684 19.1165 76.0684 19.5176C76.0684 19.9186 75.9251 20.2552 75.6387 20.5273C75.3665 20.8138 75.0299 20.957 74.6289 20.957H69.2148C68.2122 20.9427 67.3815 20.6634 66.7227 20.1191C66.0781 19.5605 65.6126 18.9375 65.3262 18.25C65.054 17.5482 64.918 16.8249 64.918 16.0801C64.918 15.3639 65.0612 14.6621 65.3477 13.9746C65.6341 13.2728 66.0996 12.6497 66.7441 12.1055C67.3887 11.5469 68.3411 11.2461 69.6016 11.2031H78.625C79.026 11.2031 79.3698 11.3392 79.6562 11.6113C79.9427 11.8691 80.0931 12.1986 80.1074 12.5996V19.8184C80.1074 20.2194 79.957 20.556 79.6562 20.8281C79.3698 21.0859 79.026 21.2148 78.625 21.2148C77.7656 21.1432 77.293 20.6777 77.207 19.8184Z" fill="#C4F4FF"/>
<path d="M5 26.5H103" stroke="#C4F4FF"/>
<path d="M84 32L92 17" stroke="#C4F4FF"/>
<path d="M92 32L100 17" stroke="#C4F4FF"/>
<line x1="5" y1="4.5" x2="84" y2="4.5" stroke="#C4F4FF"/>
</g>
<defs>
<filter id="filter0_d_25_100" x="0.0527344" y="0" width="106.947" height="36.2354" filterUnits="userSpaceOnUse" color-interpolation-filters="sRGB">
<feFlood flood-opacity="0" result="BackgroundImageFix"/>
<feColorMatrix in="SourceAlpha" type="matrix" values="0 0 0 0 0 0 0 0 0 0 0 0 0 0 0 0 0 0 127 0" result="hardAlpha"/>
<feOffset/>
<feGaussianBlur stdDeviation="2"/>
<feComposite in2="hardAlpha" operator="out"/>
<feColorMatrix type="matrix" values="0 0 0 0 0.270588 0 0 0 0 0.827451 0 0 0 0 0.960784 0 0 0 1 0"/>
<feBlend mode="normal" in2="BackgroundImageFix" result="effect1_dropShadow_25_100"/>
<feBlend mode="normal" in="SourceGraphic" in2="effect1_dropShadow_25_100" result="shape"/>
</filter>
</defs>
</svg>
