<svg width="613" height="853" viewBox="0 0 613 853" fill="none" xmlns="http://www.w3.org/2000/svg">
<g opacity="0.2">
<path d="M42.9056 597.764C42.9056 597.764 -136.8 -256.746 248.07 79.2862C632.94 415.318 611.974 195.699 611.974 195.699C611.974 195.699 382.35 591.405 559.061 708.307C735.772 825.209 248.07 825.209 248.07 825.209L115.786 708.307L42.9056 597.764Z" stroke="#45D3F5"/>
<path d="M30.5478 804.487C30.5478 804.487 6.47645 689.879 58.0292 734.948C109.582 780.017 106.774 750.562 106.774 750.562C106.774 750.562 76.0157 803.634 99.6859 819.313C123.356 834.992 58.0292 834.992 58.0292 834.992L40.31 819.313L30.5478 804.487Z" stroke="#45D3F5"/>
<path d="M42.5313 620.35C42.5313 620.35 -130.046 -217.134 239.556 112.203C609.158 441.54 589.024 226.296 589.024 226.296C589.024 226.296 368.509 614.118 538.21 728.691C707.91 843.263 239.556 843.263 239.556 843.263L112.521 728.691L42.5313 620.35Z" stroke="#45D3F5"/>
<path d="M41.9418 630.412C41.9418 630.412 -123.212 -171.055 230.492 144.119C584.196 459.292 564.927 253.305 564.927 253.305C564.927 253.305 353.898 624.448 516.299 734.094C678.7 843.739 230.492 843.739 230.492 843.739L108.921 734.094L41.9418 630.412Z" stroke="#45D3F5"/>
<path d="M41.3524 640.475C41.3524 640.475 -116.378 -124.976 221.428 176.034C559.233 477.044 540.831 280.314 540.831 280.314C540.831 280.314 339.287 634.779 494.388 739.497C649.489 844.215 221.428 844.215 221.428 844.215L105.321 739.497L41.3524 640.475Z" stroke="#45D3F5"/>
<path d="M40.7629 650.538C40.7629 650.538 -109.544 -78.8963 212.363 207.95C534.27 494.797 516.734 307.324 516.734 307.324C516.734 307.324 324.676 645.11 472.477 744.901C620.279 844.692 212.363 844.692 212.363 844.692L101.721 744.901L40.7629 650.538Z" stroke="#45D3F5"/>
<path d="M40.1735 660.6C40.1735 660.6 -102.71 -32.8173 203.299 239.866C509.308 512.55 492.638 334.333 492.638 334.333C492.638 334.333 310.064 655.44 450.567 750.304C591.069 845.168 203.299 845.168 203.299 845.168L98.1207 750.304L40.1735 660.6Z" stroke="#45D3F5"/>
<path d="M39.5841 670.663C39.5841 670.663 -95.8762 13.2617 194.234 271.782C484.345 530.302 468.541 361.342 468.541 361.342C468.541 361.342 295.453 665.771 428.656 755.707C561.858 845.644 194.234 845.644 194.234 845.644L94.5207 755.707L39.5841 670.663Z" stroke="#45D3F5"/>
<path d="M38.9946 680.726C38.9946 680.726 -89.0423 59.3411 185.17 303.698C459.383 548.055 444.445 388.351 444.445 388.351C444.445 388.351 280.842 676.102 406.745 761.111C532.648 846.12 185.17 846.12 185.17 846.12L90.9207 761.111L38.9946 680.726Z" stroke="#45D3F5"/>
<path d="M38.4052 690.788C38.4052 690.788 -82.2085 105.42 176.106 335.614C434.42 565.807 420.348 415.36 420.348 415.36C420.348 415.36 266.231 686.433 384.834 766.514C503.438 846.596 176.106 846.596 176.106 846.596L87.3207 766.514L38.4052 690.788Z" stroke="#45D3F5"/>
<path d="M37.8158 700.851C37.8158 700.851 -75.3746 151.5 167.041 367.53C409.457 583.56 396.252 442.37 396.252 442.37C396.252 442.37 251.62 696.764 362.923 771.918C474.227 847.073 167.041 847.073 167.041 847.073L83.7207 771.918L37.8158 700.851Z" stroke="#45D3F5"/>
<path d="M37.2263 710.914C37.2263 710.914 -68.5407 197.579 157.977 399.445C384.495 601.312 372.155 469.379 372.155 469.379C372.155 469.379 237.008 707.094 341.013 777.321C445.017 847.549 157.977 847.549 157.977 847.549L80.1207 777.321L37.2263 710.914Z" stroke="#45D3F5"/>
<path d="M36.6369 720.977C36.6369 720.977 -61.7069 243.658 148.913 431.361C359.532 619.065 348.059 496.388 348.059 496.388C348.059 496.388 222.397 717.425 319.102 782.725C415.806 848.025 148.913 848.025 148.913 848.025L76.5207 782.725L36.6369 720.977Z" stroke="#45D3F5"/>
<path d="M36.0474 731.039C36.0474 731.039 -54.873 289.737 139.848 463.277C334.569 636.818 323.962 523.397 323.962 523.397C323.962 523.397 207.786 727.756 297.191 788.128C386.596 848.501 139.848 848.501 139.848 848.501L72.9207 788.128L36.0474 731.039Z" stroke="#45D3F5"/>
<path d="M35.458 741.102C35.458 741.102 -48.0391 335.816 130.784 495.193C309.607 654.57 299.865 550.406 299.865 550.406C299.865 550.406 193.175 738.086 275.28 793.532C357.386 848.977 130.784 848.977 130.784 848.977L69.3207 793.532L35.458 741.102Z" stroke="#45D3F5"/>
<path d="M34.8686 751.165C34.8686 751.165 -41.2053 381.895 121.719 527.109C284.644 672.323 275.769 577.416 275.769 577.416C275.769 577.416 178.563 748.417 253.369 798.935C328.175 849.454 121.719 849.454 121.719 849.454L65.7207 798.935L34.8686 751.165Z" stroke="#45D3F5"/>
<path d="M34.2791 761.228C34.2791 761.228 -34.3714 427.974 112.655 559.025C259.682 690.075 251.672 604.425 251.672 604.425C251.672 604.425 163.952 758.748 231.459 804.339C298.965 849.93 112.655 849.93 112.655 849.93L62.1207 804.339L34.2791 761.228Z" stroke="#45D3F5"/>
<path d="M33.6897 771.29C33.6897 771.29 -27.5375 474.054 103.591 590.941C234.719 707.828 227.576 631.434 227.576 631.434C227.576 631.434 149.341 769.078 209.548 809.742C269.754 850.406 103.591 850.406 103.591 850.406L58.5207 809.742L33.6897 771.29Z" stroke="#45D3F5"/>
<path d="M33.1002 781.353C33.1002 781.353 -20.7037 520.133 94.5264 622.857C209.756 725.58 203.479 658.444 203.479 658.444C203.479 658.444 134.73 779.409 187.637 815.146C240.544 850.882 94.5264 850.882 94.5264 850.882L54.9207 815.146L33.1002 781.353Z" stroke="#45D3F5"/>
<path d="M32.5108 791.416C32.5108 791.416 -13.8698 566.212 85.462 654.772C184.794 743.333 179.383 685.453 179.383 685.453C179.383 685.453 120.119 789.74 165.726 820.549C211.334 851.358 85.462 851.358 85.462 851.358L51.3207 820.549L32.5108 791.416Z" stroke="#45D3F5"/>
<path d="M31.9214 801.479C31.9214 801.479 -7.03594 612.291 76.3976 686.688C159.831 761.085 155.286 712.462 155.286 712.462C155.286 712.462 105.507 800.071 143.815 825.953C182.123 851.835 76.3976 851.835 76.3976 851.835L47.7207 825.953L31.9214 801.479Z" stroke="#45D3F5"/>
<path d="M31.3319 811.541C31.3319 811.541 -0.202068 658.37 67.3332 718.604C134.869 778.838 131.19 739.471 131.19 739.471C131.19 739.471 90.8961 810.401 121.905 831.356C152.913 852.311 67.3332 852.311 67.3332 852.311L44.1207 831.356L31.3319 811.541Z" stroke="#45D3F5"/>
</g>
</svg>
